# xmcd
#
# Track frame offsets:
#	150
#	21902
#	36572
#	52955
#	70500
#	89115
#	115990
#	131952
#	149920
#	178377
#	196150
#	217090
#
# Disc length: 3117 seconds
#
# Revision: 0
# Processed by: cddbd v1.5.2PL0 Copyright (c) Steve Scherf et al.
# Submitted via: dBpowerAMP V4.0
#
DISCID=c80c2b0c
DTITLE=Sarah Montgomery - When It Rains
DYEAR=2003
DGENRE=Country
TTITLE0=Resistable
TTITLE1=Call Me Naive
TTITLE2=Wrap Me In Your Arms
TTITLE3=Oh, You
TTITLE4=When It Rains, It Pours
TTITLE5=I Grew From You
TTITLE6=I Am Watching
TTITLE7=What A Love
TTITLE8=Lost Soldier: The Soldier's Song
TTITLE9=Everything I Do (Makes Me Wanna Be With You)
TTITLE10=Leavin On A Jet Plane
TTITLE11=Open Your Eyes (Eph. 6)
EXTD=
EXTT0=
EXTT1=
EXTT2=
EXTT3=
EXTT4=
EXTT5=
EXTT6=
EXTT7=
EXTT8=
EXTT9=
EXTT10=
EXTT11=
PLAYORDER=
